<svg xmlns="http://www.w3.org/2000/svg" xmlns:xlink="http://www.w3.org/1999/xlink" width="62" zoomAndPan="magnify" viewBox="0 0 46.5 46.5" height="62" preserveAspectRatio="xMidYMid meet" version="1.0"><defs><g/><clipPath id="aec1e8d731"><path d="M 0 0 L 46.003906 0 L 46.003906 46.003906 L 0 46.003906 Z M 0 0 " clip-rule="nonzero"/></clipPath><clipPath id="ae6a554a2a"><path d="M 3.21875 1.75 L 42.929688 1.75 L 42.929688 44.40625 L 3.21875 44.40625 Z M 3.21875 1.75 " clip-rule="nonzero"/></clipPath></defs><g clip-path="url(#aec1e8d731)"><path fill="#ffffff" d="M 0 0 L 46.003906 0 L 46.003906 46.003906 L 0 46.003906 Z M 0 0 " fill-opacity="1" fill-rule="nonzero"/><path fill="#ffffff" d="M 0 0 L 46.003906 0 L 46.003906 46.003906 L 0 46.003906 Z M 0 0 " fill-opacity="1" fill-rule="nonzero"/></g><g clip-path="url(#ae6a554a2a)"><path fill="#4b2a63" d="M 11.90625 1.765625 C 12.234375 1.765625 12.550781 1.90625 12.785156 2.15625 C 13.015625 2.40625 13.148438 2.746094 13.148438 3.097656 L 13.148438 4.429688 L 33.003906 4.429688 L 33.003906 3.097656 C 33.003906 2.746094 33.132812 2.40625 33.367188 2.15625 C 33.601562 1.90625 33.914062 1.765625 34.246094 1.765625 C 34.574219 1.765625 34.890625 1.90625 35.121094 2.15625 C 35.355469 2.40625 35.484375 2.746094 35.484375 3.097656 L 35.484375 4.429688 L 37.96875 4.429688 C 39.285156 4.429688 40.546875 4.992188 41.476562 5.992188 C 42.410156 6.992188 42.933594 8.347656 42.933594 9.757812 L 42.933594 39.0625 C 42.933594 40.472656 42.410156 41.828125 41.476562 42.828125 C 40.546875 43.828125 39.285156 44.386719 37.96875 44.386719 L 8.183594 44.386719 C 6.867188 44.386719 5.605469 43.828125 4.671875 42.828125 C 3.742188 41.828125 3.21875 40.472656 3.21875 39.0625 L 3.21875 9.757812 C 3.21875 8.347656 3.742188 6.992188 4.671875 5.992188 C 5.605469 4.992188 6.867188 4.429688 8.183594 4.429688 L 10.664062 4.429688 L 10.664062 3.097656 C 10.664062 2.746094 10.796875 2.40625 11.027344 2.15625 C 11.261719 1.90625 11.578125 1.765625 11.90625 1.765625 Z M 5.699219 12.421875 L 5.699219 39.0625 C 5.699219 39.765625 5.960938 40.445312 6.429688 40.945312 C 6.894531 41.445312 7.523438 41.722656 8.183594 41.722656 L 37.96875 41.722656 C 38.625 41.722656 39.257812 41.445312 39.722656 40.945312 C 40.1875 40.445312 40.449219 39.765625 40.449219 39.0625 L 40.449219 12.421875 Z M 5.699219 12.421875 " fill-opacity="1" fill-rule="nonzero"/></g><g fill="#4b2a63" fill-opacity="1"><g transform="translate(13.798827, 30.717643)"><g><path d="M 7.671875 -9.4375 L 2.515625 -9.4375 L 2.515625 -6.09375 C 2.742188 -6.40625 3.078125 -6.660156 3.515625 -6.859375 C 3.953125 -7.066406 4.425781 -7.171875 4.9375 -7.171875 C 5.75 -7.171875 6.410156 -7 6.921875 -6.65625 C 7.429688 -6.320312 7.796875 -5.890625 8.015625 -5.359375 C 8.234375 -4.828125 8.34375 -4.265625 8.34375 -3.671875 C 8.34375 -2.960938 8.207031 -2.328125 7.9375 -1.765625 C 7.675781 -1.210938 7.273438 -0.773438 6.734375 -0.453125 C 6.191406 -0.128906 5.519531 0.03125 4.71875 0.03125 C 3.695312 0.03125 2.867188 -0.226562 2.234375 -0.75 C 1.597656 -1.28125 1.207031 -1.988281 1.0625 -2.875 L 2.375 -2.875 C 2.5 -2.3125 2.765625 -1.875 3.171875 -1.5625 C 3.585938 -1.25 4.109375 -1.09375 4.734375 -1.09375 C 5.503906 -1.09375 6.082031 -1.320312 6.46875 -1.78125 C 6.863281 -2.25 7.0625 -2.867188 7.0625 -3.640625 C 7.0625 -4.398438 6.863281 -4.988281 6.46875 -5.40625 C 6.082031 -5.820312 5.507812 -6.03125 4.75 -6.03125 C 4.226562 -6.03125 3.773438 -5.90625 3.390625 -5.65625 C 3.003906 -5.40625 2.722656 -5.0625 2.546875 -4.625 L 1.296875 -4.625 L 1.296875 -10.609375 L 7.671875 -10.609375 Z M 7.671875 -9.4375 "/></g></g></g><g fill="#4b2a63" fill-opacity="1"><g transform="translate(23.000897, 30.717643)"><g><path d="M 0.90625 -5.40625 C 0.90625 -7.082031 1.175781 -8.390625 1.71875 -9.328125 C 2.269531 -10.273438 3.234375 -10.75 4.609375 -10.75 C 5.960938 -10.75 6.910156 -10.273438 7.453125 -9.328125 C 8.003906 -8.390625 8.28125 -7.082031 8.28125 -5.40625 C 8.28125 -3.695312 8.003906 -2.367188 7.453125 -1.421875 C 6.910156 -0.472656 5.960938 0 4.609375 0 C 3.234375 0 2.269531 -0.472656 1.71875 -1.421875 C 1.175781 -2.367188 0.90625 -3.695312 0.90625 -5.40625 Z M 6.96875 -5.40625 C 6.96875 -6.257812 6.910156 -6.976562 6.796875 -7.5625 C 6.679688 -8.15625 6.445312 -8.632812 6.09375 -9 C 5.75 -9.363281 5.253906 -9.546875 4.609375 -9.546875 C 3.941406 -9.546875 3.429688 -9.363281 3.078125 -9 C 2.734375 -8.632812 2.503906 -8.15625 2.390625 -7.5625 C 2.285156 -6.976562 2.234375 -6.257812 2.234375 -5.40625 C 2.234375 -4.53125 2.285156 -3.789062 2.390625 -3.1875 C 2.503906 -2.59375 2.734375 -2.113281 3.078125 -1.75 C 3.429688 -1.394531 3.941406 -1.21875 4.609375 -1.21875 C 5.253906 -1.21875 5.75 -1.394531 6.09375 -1.75 C 6.445312 -2.113281 6.679688 -2.59375 6.796875 -3.1875 C 6.910156 -3.789062 6.96875 -4.53125 6.96875 -5.40625 Z M 6.96875 -5.40625 "/></g></g></g></svg>